<svg width="40" height="53" viewBox="0 0 40 53" fill="none" xmlns="http://www.w3.org/2000/svg">
<path d="M17.0685 30.8758L17.0728 30.8715L25.1912 22.3035C25.3614 22.1236 25.6322 22.0851 25.8474 22.2082C26.0615 22.3324 26.1632 22.5871 26.0926 22.8248L22.7324 34.1385L22.7313 34.1407L22.7302 34.1449L22.7292 34.1503L22.7281 34.1535L22.7259 34.1567L22.7249 34.161L22.7238 34.1642L22.7227 34.1674L22.7217 34.1717L22.7195 34.1749L22.7184 34.1792L22.7174 34.1824L22.7163 34.1856L22.7142 34.1888L22.7131 34.1931L22.7109 34.1963L22.7099 34.1995L22.7088 34.2038L22.7067 34.207L22.7056 34.2102L22.7035 34.2135L22.7024 34.2167L22.7002 34.221L22.6992 34.2242L22.697 34.2274L22.6949 34.2306L22.6938 34.2338L22.6917 34.237L22.6895 34.2402L22.6885 34.2434L22.6863 34.2477L22.6842 34.2509L22.6831 34.2541L22.681 34.2573L22.6788 34.2606L22.6778 34.2627L22.6756 34.2659L22.6735 34.2691L22.6713 34.2723L22.6692 34.2755L22.6671 34.2787L22.6649 34.282L22.6628 34.2852L22.6606 34.2894L22.6585 34.2927L22.6564 34.2959L22.6542 34.2991L22.651 34.3023L22.6489 34.3055L22.6467 34.3077L22.6446 34.3109L22.6425 34.3141L22.6403 34.3173L22.6371 34.3205L22.635 34.3226L22.6328 34.3259L22.6307 34.3291L22.6275 34.3323L22.6253 34.3344L22.6232 34.3376L22.62 34.3408L22.6178 34.343L22.6157 34.3462L22.6125 34.3494L22.6103 34.3515L22.6071 34.3548L14.4887 42.9217C14.3185 43.1015 14.0477 43.1411 13.8325 43.018C13.6184 42.8939 13.5167 42.6391 13.5874 42.4014L16.9476 31.0866L16.9486 31.0845L16.9497 31.0813L16.9508 31.0759L16.9529 31.0727L16.954 31.0684L16.9551 31.0652L16.9562 31.062L16.9572 31.0577L16.9583 31.0545L16.9604 31.0513L16.9615 31.047L16.9626 31.0438L16.9636 31.0406L16.9658 31.0363L16.9669 31.0331L16.969 31.0299L16.9701 31.0267L16.9711 31.0224L16.9733 31.0192L16.9743 31.016L16.9765 31.0128L16.9776 31.0085L16.9797 31.0053L16.9808 31.0021L16.9829 30.9988L16.985 30.9956L16.9861 30.9924L16.9883 30.9892L16.9904 30.9849L16.9915 30.9817L16.9936 30.9785L16.9958 30.9753L16.9968 30.9721L16.999 30.9689L17.0011 30.9657L17.0022 30.9635L17.0043 30.9603L17.0065 30.9571L17.0086 30.9539L17.0107 30.9496L17.0129 30.9475L17.015 30.9442L17.0172 30.941L17.0193 30.9368L17.0214 30.9335L17.0236 30.9303L17.0257 30.9271L17.0289 30.9239L17.0311 30.9207L17.0332 30.9175L17.0354 30.9154L17.0375 30.9121L17.0396 30.9089L17.0429 30.9057L17.045 30.9025L17.0471 30.9004L17.0493 30.8972L17.0525 30.8939L17.0546 30.8918L17.0568 30.8886L17.06 30.8854L17.0621 30.8822L17.0643 30.88L17.0685 30.8758Z" fill="#FEF4E5"/>
<path fill-rule="evenodd" clip-rule="evenodd" d="M17.38 10.4649C16.6254 11.1178 16.134 12.0663 16.0837 13.1282L19.84 12.7728C8.89019 12.7728 0 21.663 0 32.6127C0 43.5625 8.89019 52.4527 19.84 52.4527C30.7897 52.4527 39.6799 43.5625 39.6799 32.6127C39.6799 21.663 30.7897 12.7728 19.84 12.7728L23.5962 13.1282C23.5459 12.0663 23.0546 11.1189 22.301 10.4649C23.3468 8.49306 24.0351 5.53643 24.0351 4.19514C24.0351 1.87973 22.1554 0 19.84 0C17.5246 0 15.6448 1.87973 15.6448 4.19514C15.6448 5.53643 16.3331 8.49306 17.38 10.4649ZM19.84 13.8432C30.1988 13.8432 38.6095 22.2539 38.6095 32.6127C38.6095 42.9716 30.1988 51.3822 19.84 51.3822C9.48109 51.3822 1.07046 42.9716 1.07046 32.6127C1.07046 22.2539 9.48109 13.8432 19.84 13.8432ZM19.84 15.4843C10.3867 15.4843 2.71148 23.1595 2.71148 32.6127C2.71148 42.066 10.3867 49.7412 19.84 49.7412C29.2932 49.7412 36.9685 42.066 36.9685 32.6127C36.9685 23.1595 29.2932 15.4843 19.84 15.4843ZM19.3047 16.5633C10.8673 16.8405 4.06668 23.6401 3.7905 32.0775H5.52252C5.81797 32.0775 6.05775 32.3173 6.05775 32.6127C6.05775 32.9082 5.81797 33.148 5.52252 33.148H3.7905C4.06775 41.5854 10.8673 48.386 19.3047 48.6622V46.9302C19.3047 46.6347 19.5445 46.3949 19.84 46.3949C20.1354 46.3949 20.3752 46.6347 20.3752 46.9302V48.6622C28.8126 48.385 35.6133 41.5854 35.8894 33.148H34.1574C33.862 33.148 33.6222 32.9082 33.6222 32.6127C33.6222 32.3173 33.862 32.0775 34.1574 32.0775H35.8894C35.6122 23.6401 28.8126 16.8395 20.3752 16.5633V18.2953C20.3752 18.5907 20.1354 18.8305 19.84 18.8305C19.5445 18.8305 19.3047 18.5907 19.3047 18.2953V16.5633ZM17.0728 30.8711L17.0685 30.8754L17.0642 30.8797L17.0621 30.8818L17.06 30.885L17.0568 30.8882L17.0546 30.8914L17.0525 30.8936L17.0493 30.8968L17.0471 30.9L17.045 30.9021L17.0428 30.9053L17.0396 30.9086L17.0375 30.9118L17.0354 30.915L17.0332 30.9171L17.0311 30.9203L17.0289 30.9235L17.0257 30.9268L17.0236 30.93L17.0214 30.9332L17.0193 30.9364L17.0172 30.9407L17.015 30.9439L17.0129 30.9471L17.0107 30.9492L17.0086 30.9535L17.0065 30.9567L17.0043 30.9599L17.0022 30.9632L17.0011 30.9653L16.999 30.9685L16.9968 30.9717L16.9958 30.9749L16.9936 30.9781L16.9915 30.9814L16.9904 30.9846L16.9882 30.9888L16.9861 30.9921L16.985 30.9953L16.9829 30.9985L16.9808 31.0017L16.9797 31.0049L16.9775 31.0081L16.9765 31.0124L16.9743 31.0156L16.9733 31.0188L16.9711 31.022L16.97 31.0263L16.969 31.0295L16.9668 31.0327L16.9658 31.036L16.9636 31.0402L16.9626 31.0434L16.9615 31.0467L16.9604 31.0509L16.9583 31.0541L16.9572 31.0574L16.9561 31.0616L16.9551 31.0648L16.954 31.0681L16.9529 31.0723L16.9508 31.0756L16.9497 31.0809L16.9486 31.0841L16.9476 31.0863L13.5874 42.4011C13.5167 42.6387 13.6184 42.8935 13.8325 43.0177C14.0477 43.1408 14.3185 43.1011 14.4887 42.9213L22.6071 34.3544L22.6103 34.3512L22.6125 34.349L22.6157 34.3458L22.6178 34.3426L22.62 34.3405L22.6232 34.3373L22.6253 34.334L22.6275 34.3319L22.6307 34.3287L22.6328 34.3255L22.6349 34.3223L22.6371 34.3201L22.6403 34.3169L22.6424 34.3137L22.6446 34.3105L22.6467 34.3073L22.6489 34.3051L22.651 34.3019L22.6542 34.2987L22.6564 34.2955L22.6585 34.2923L22.6606 34.2891L22.6628 34.2848L22.6649 34.2816L22.6671 34.2784L22.6692 34.2752L22.6713 34.272L22.6735 34.2687L22.6756 34.2655L22.6778 34.2623L22.6788 34.2602L22.681 34.257L22.6831 34.2538L22.6842 34.2505L22.6863 34.2473L22.6885 34.2431L22.6895 34.2398L22.6917 34.2366L22.6938 34.2334L22.6949 34.2302L22.697 34.227L22.6992 34.2238L22.7002 34.2206L22.7024 34.2163L22.7035 34.2131L22.7056 34.2099L22.7067 34.2067L22.7088 34.2034L22.7099 34.1992L22.7109 34.1959L22.7131 34.1927L22.7142 34.1885L22.7163 34.1852L22.7174 34.182L22.7184 34.1788L22.7195 34.1745L22.7217 34.1713L22.7227 34.1671L22.7238 34.1638L22.7249 34.1606L22.7259 34.1563L22.7281 34.1531L22.7291 34.1499L22.7302 34.1446L22.7313 34.1403L22.7324 34.1382L26.0925 22.8244C26.1632 22.5868 26.0615 22.332 25.8474 22.2078C25.6322 22.0847 25.3614 22.1233 25.1912 22.3031L17.0728 30.8711ZM17.7804 32.0422L21.3643 34.1103L15.2509 40.562L17.7804 32.0422ZM18.3156 31.1152L21.8995 33.1833L24.429 24.6635L18.3156 31.1152ZM21.2883 11.0418C20.8698 10.7731 20.3731 10.6179 19.84 10.6179C19.3069 10.6179 18.8102 10.7731 18.3916 11.0418C18.3788 11.0504 18.3659 11.059 18.3531 11.0665C18.351 11.0686 18.3488 11.0697 18.3467 11.0707C17.7194 11.4914 17.2773 12.168 17.1734 12.9505L17.1906 12.9483C17.5535 12.9002 17.9174 12.8616 18.2824 12.8327C19.1088 12.7685 19.9384 12.7556 20.7648 12.7942C21.3418 12.8199 21.9167 12.8723 22.4894 12.9483L22.5065 12.9505C22.4016 12.168 21.9605 11.4914 21.3333 11.0707C21.3311 11.0697 21.329 11.0686 21.3268 11.0665C21.314 11.059 21.3012 11.0504 21.2883 11.0418ZM21.3975 9.88466C22.3406 8.07557 22.9646 5.41226 22.9646 4.19514C22.9646 2.47062 21.5645 1.07046 19.84 1.07046C18.1154 1.07046 16.7153 2.47062 16.7153 4.19514C16.7153 5.41226 17.3394 8.07557 18.2824 9.88466C18.7567 9.66842 19.2844 9.54746 19.84 9.54746C20.3955 9.54746 20.9233 9.66842 21.3975 9.88466ZM19.84 2.30471C18.7213 2.30471 17.8136 3.21246 17.8136 4.33109C17.8136 5.44973 18.7213 6.35748 19.84 6.35748C20.9586 6.35748 21.8664 5.44973 21.8664 4.33109C21.8664 3.21246 20.9586 2.30471 19.84 2.30471ZM19.84 3.37517C20.3677 3.37517 20.7959 3.80335 20.7959 4.33109C20.7959 4.85883 20.3677 5.28702 19.84 5.28702C19.3122 5.28702 18.884 4.85883 18.884 4.33109C18.884 3.80335 19.3122 3.37517 19.84 3.37517Z" fill="#F4AF46"/>
</svg>
