<svg width="236" height="141" viewBox="0 0 236 141" fill="none" xmlns="http://www.w3.org/2000/svg">
<g clip-path="url(#clip0_98_722)">
<path d="M180.565 139.406C177.546 136.854 175.712 132.824 176.193 128.9C176.674 124.976 179.653 121.369 183.517 120.536C187.381 119.703 191.786 122.009 192.96 125.784C193.606 118.507 194.35 110.924 198.219 104.727C201.723 99.115 207.791 95.0996 214.367 94.3812C220.944 93.6629 227.868 96.376 231.969 101.567C236.071 106.757 237.075 114.304 234.203 120.263C232.086 124.653 228.188 127.92 224.103 130.578C210.904 139.095 195.072 142.558 179.523 140.331L180.565 139.406Z" fill="#F2F2F2"/>
<path d="M225.466 96.5262C220.04 100.946 215.062 105.889 210.604 111.285C203.627 119.699 197.982 129.133 193.864 139.259C193.562 139.997 194.762 140.319 195.06 139.588C201.797 123.133 212.553 108.629 226.343 97.4033C226.962 96.8991 226.08 96.0262 225.466 96.5262Z" fill="white"/>
<path d="M75.921 138.712C80.0682 135.208 82.5872 129.672 81.9266 124.283C81.266 118.894 77.1743 113.94 71.8669 112.795C66.5594 111.651 60.5092 114.819 58.8972 120.003C58.01 110.008 56.9877 99.5931 51.6733 91.0808C46.8613 83.3731 38.5267 77.8579 29.494 76.8713C20.4613 75.8846 10.9509 79.6111 5.31755 86.7406C-0.315836 93.87 -1.69515 104.235 2.25033 112.42C5.15683 118.45 10.5116 122.937 16.1221 126.588C34.0215 138.235 56.2257 143.092 77.3533 139.983" fill="#F2F2F2"/>
<path d="M14.2499 79.8177C21.703 85.8884 28.5405 92.6779 34.6634 100.088C40.7872 107.491 46.1786 115.47 50.7618 123.914C53.3236 128.65 55.625 133.523 57.6556 138.511C58.0696 139.525 56.4221 139.967 56.0127 138.963C52.416 130.171 47.9663 121.752 42.7273 113.827C37.5137 105.931 31.5465 98.5592 24.9094 91.8154C21.1555 88.003 17.1948 84.3999 13.0452 81.0224C12.1946 80.3298 13.4064 79.1308 14.2499 79.8177Z" fill="white"/>
<path d="M169.29 140.691H70.3456V39.1713C70.3456 17.5721 87.9178 0 109.517 0H130.119C151.718 0 169.29 17.5721 169.29 39.1713V140.691Z" fill="#F2F2F2"/>
<path d="M148.688 140.691H70.3457V39.1712C70.324 30.8949 72.9448 22.8278 77.8263 16.1444C78.0063 15.8991 78.1858 15.657 78.3709 15.4176C80.7321 12.3207 83.5419 9.59341 86.7078 7.32561C86.8866 7.19549 87.0661 7.06763 87.2483 6.93977C89.8974 5.10656 92.763 3.60794 95.7799 2.47804C95.959 2.41013 96.1414 2.3421 96.3238 2.27684C99.0523 1.30314 101.881 0.636153 104.757 0.288207C104.935 0.26385 105.118 0.244791 105.301 0.225731C108.104 -0.0739416 110.931 -0.0739416 113.733 0.225731C113.916 0.244791 114.099 0.263848 114.279 0.288467C117.155 0.636436 119.982 1.30334 122.71 2.27685C122.892 2.34211 123.075 2.41014 123.255 2.47818C126.234 3.59383 129.066 5.07008 131.687 6.87399C131.869 6.99907 132.051 7.12694 132.231 7.2548C134.005 8.5215 135.672 9.93267 137.214 11.4739C138.451 12.7102 139.603 14.0279 140.664 15.4184C140.848 15.657 141.028 15.8991 141.207 16.144C146.089 22.8275 148.71 30.8947 148.688 39.1712V140.691Z" fill="#CCCCCC"/>
<path d="M142.318 95.2852C144.713 95.2852 146.655 93.3433 146.655 90.9479C146.655 88.5525 144.713 86.6106 142.318 86.6106C139.922 86.6106 137.98 88.5525 137.98 90.9479C137.98 93.3433 139.922 95.2852 142.318 95.2852Z" fill="#33A5D9"/>
<path d="M227.704 140.866H27.5656C27.4802 140.866 27.3983 140.831 27.338 140.771C27.2777 140.71 27.2438 140.628 27.2438 140.543C27.2438 140.458 27.2777 140.376 27.338 140.315C27.3983 140.255 27.4802 140.22 27.5656 140.22H227.704C227.789 140.22 227.871 140.255 227.931 140.315C227.992 140.376 228.025 140.458 228.025 140.543C228.025 140.628 227.992 140.71 227.931 140.771C227.871 140.831 227.789 140.866 227.704 140.866Z" fill="black"/>
<path d="M127.137 111.279H91.8966C91.4325 111.281 90.9864 111.1 90.6561 110.774C90.3257 110.448 90.1382 110.004 90.1346 109.54V30.8802C90.1382 30.4161 90.3257 29.9724 90.6561 29.6463C90.9864 29.3203 91.4325 29.1386 91.8966 29.1411H127.137C127.601 29.1386 128.048 29.3203 128.378 29.6463C128.708 29.9724 128.896 30.4161 128.899 30.8802V109.54C128.896 110.004 128.708 110.448 128.378 110.774C128.048 111.1 127.601 111.281 127.137 111.279Z" fill="white"/>
<path d="M128.899 54.593H90.1346V55.1352H128.899V54.593Z" fill="#CCCCCC"/>
<path d="M129.035 85.5264H90.2701V86.0685H129.035V85.5264Z" fill="#CCCCCC"/>
<path d="M102.875 29.1414H102.333V111.55H102.875V29.1414Z" fill="#CCCCCC"/>
<path d="M116.43 29.1414H115.887V111.55H116.43V29.1414Z" fill="#CCCCCC"/>
</g>
<defs>
<clipPath id="clip0_98_722">
<rect width="235.841" height="141" fill="white"/>
</clipPath>
</defs>
</svg>
