<svg width="80" height="80" viewBox="0 0 80 80" fill="none" xmlns="http://www.w3.org/2000/svg">
<path d="M37 66L29.5 58.5L27 61.5L34 68.5L37 66Z" fill="#B0D4FF"/>
<path d="M53 18.5L45.5 11L43 14L50 21L53 18.5Z" fill="#B0D4FF"/>
<path d="M53.5458 37.7692L53.5465 37.7685L61.5826 29.3847L61.5829 29.3844C61.9099 29.0438 62.3111 28.8858 62.7156 28.9073C63.1071 28.9281 63.4546 29.1141 63.7037 29.3721C64.2056 29.8917 64.3848 30.8049 63.698 31.5201L56.5582 38.9707C56.5581 38.9708 56.5581 38.9709 56.558 38.971C56.4575 39.0765 56.4359 39.2231 56.4894 39.3585C56.5424 39.4927 56.6457 39.563 56.7648 39.563C56.7913 39.563 56.8083 39.563 56.819 39.563C56.8206 39.562 56.8223 39.5609 56.8241 39.5597C56.9117 39.5029 57.0835 39.3535 57.4849 38.9477C57.9092 38.5188 58.5471 37.8491 59.5477 36.7986C60.3929 35.9112 61.4969 34.7521 62.9497 33.2368L62.9504 33.236C63.9084 32.2411 65.5057 32.9443 65.4993 34.2858M53.5458 37.7692L64.9993 34.2848M53.5458 37.7692C53.4512 37.8683 53.3796 37.8769 53.3371 37.8741C53.2804 37.8704 53.2038 37.8391 53.1343 37.7661C53.0653 37.6936 53.0271 37.6043 53.0225 37.5244C53.0186 37.4556 53.037 37.3687 53.1313 37.2706L53.1314 37.2705L60.0148 30.1109L60.0161 30.1096C60.7013 29.3918 60.5218 28.4802 60.0174 27.9619C59.7674 27.7051 59.4195 27.5209 59.0284 27.5017C58.6247 27.4818 58.2247 27.6405 57.8993 27.9811C57.8992 27.9813 57.899 27.9814 57.8989 27.9816L49.2743 36.9762C49.1806 37.0737 49.1094 37.0822 49.0664 37.0792C49.009 37.0753 48.9319 37.0434 48.862 36.9699C48.7927 36.8969 48.7544 36.8072 48.7498 36.7271C48.7459 36.6582 48.7643 36.5713 48.8587 36.4732L48.8599 36.4719C48.8998 36.4301 48.9303 36.4022 48.9643 36.371L48.9654 36.3701L48.9699 36.366C49.0023 36.3364 49.0534 36.2897 49.103 36.2299C49.214 36.0962 49.284 35.9392 49.3632 35.7279C49.4542 35.485 49.5872 35.0823 49.8172 34.3862C49.9866 33.8731 50.2088 33.2007 50.5055 32.3155C50.7358 31.6303 50.5258 30.8639 49.9309 30.4285L49.6586 30.2271L49.6586 30.2271L49.6553 30.2247C49.2731 29.9469 48.808 29.8574 48.3536 29.9623L48.3536 29.9623L48.3515 29.9628C48.1568 30.0086 47.9263 30.0677 47.6861 30.2971C47.4858 30.4884 47.2944 30.7836 47.0468 31.2197C46.7587 31.7273 46.3509 32.5082 45.7222 33.712C45.2515 34.6133 44.657 35.7517 43.8961 37.19L43.8957 37.1909C43.5382 37.8702 43.4523 38.4389 43.5227 39.3283C43.5643 39.8536 43.6643 40.5263 43.7992 41.4347C43.8797 41.9766 43.9727 42.6026 44.0732 43.3312M53.5458 37.7692L44.5686 43.2638M65.4993 34.2858C65.4993 34.2865 65.4993 34.2871 65.4993 34.2877L64.9993 34.2848M65.4993 34.2858C65.4993 34.2855 65.4993 34.2851 65.4993 34.2848H64.9993M65.4993 34.2858C65.4993 34.2989 65.4996 34.3131 65.4999 34.3283C65.5023 34.457 65.5061 34.6617 65.3713 34.9152C65.2537 35.1362 65.0301 35.4022 64.6585 35.8051C64.2387 36.2604 63.5717 36.9502 62.5188 38.0393C61.6572 38.9306 60.5371 40.0891 59.0824 41.6053L59.082 41.6057C58.9877 41.7038 58.9692 41.7907 58.9732 41.8596C58.9778 41.9397 59.016 42.0293 59.0854 42.1024C59.1552 42.1759 59.2324 42.2077 59.2897 42.2117C59.3328 42.2147 59.4039 42.2062 59.4977 42.1086M64.9993 34.2848C64.9993 34.3548 65.002 34.4116 64.9968 34.4676C64.9572 34.897 64.4547 35.2837 58.7216 41.2591C57.9657 42.0453 59.1022 43.2413 59.8581 42.4552L63.3052 38.8613C63.9325 38.2099 64.9939 38.6479 64.9939 39.5689C64.9939 39.6219 64.9952 39.6678 64.9917 39.7134C64.9532 40.2226 64.3303 40.6875 54.8778 50.5526C53.9289 51.5409 52.6208 52.0575 51.2913 51.9621C50.8238 51.9266 50.5757 51.8681 50.3494 51.9149C49.8852 52.0109 49.5124 52.5497 47.5252 54.6381L47.5401 54.6537L47.1794 55L46.8186 54.6539C46.8234 54.6489 46.8281 54.644 46.8328 54.6391L46.0141 53.7864C45.7372 53.7339 45.4551 53.653 45.1674 53.5505L45.3353 53.0795L45.6959 52.7332L46.2603 53.321C47.3523 53.4813 48.2074 53.0832 49.029 51.8722C49.9832 50.4796 49.5651 48.5311 48.1283 47.7168L44.4749 45.6454C44.4649 45.66 44.4547 45.6744 44.4444 45.6887L44.0379 45.3977L44.2845 44.9627L44.2934 44.9677C44.5459 44.4472 44.6477 43.8521 44.5686 43.2638M59.4977 42.1086L59.4973 42.1091L59.8579 42.455L59.4977 42.1086ZM59.4977 42.1086L62.9444 38.5152L62.945 38.5145C63.8985 37.5243 65.4939 38.2183 65.4939 39.5689C65.4939 39.5753 65.494 39.5828 65.4941 39.5914C65.4948 39.6533 65.4961 39.7692 65.4708 39.8888C65.439 40.0395 65.3736 40.1762 65.2802 40.3194C65.1075 40.5839 64.7751 40.9624 64.1622 41.6148C63.5524 42.2639 62.6314 43.2183 61.2445 44.6555C59.8035 46.1488 57.8595 48.1634 55.2388 50.8985L55.2385 50.8989C54.1907 51.9902 52.739 52.5673 51.2555 52.4608L51.2535 52.4606C51.0997 52.449 50.9659 52.4347 50.8566 52.423C50.8279 52.4199 50.801 52.4171 50.7758 52.4144C50.6465 52.4011 50.5713 52.3959 50.513 52.3979C50.4469 52.4002 50.3933 52.4052 50.248 52.5207C50.0713 52.661 49.8284 52.9108 49.3929 53.3772C49.3106 53.4654 49.2222 53.5603 49.1271 53.6625C48.7311 54.0882 48.2182 54.6394 47.5403 55.3461L47.1796 55.7221L46.8188 55.3463L44.9746 53.4259L45.5031 52.6085C46.2346 52.8692 46.7794 52.9166 47.2333 52.7803C47.6826 52.6455 48.1323 52.3033 48.6152 51.5915L48.6165 51.5896C49.4133 50.4268 49.0514 48.8147 47.8818 48.1518L47.8817 48.1518L43.7913 45.8326L43.3078 45.5585L43.6314 45.1066C43.9922 44.6026 44.1576 43.9613 44.0732 43.3312M44.0732 43.3312C44.0733 43.3315 44.0733 43.3318 44.0733 43.3321L44.5686 43.2638M44.0732 43.3312C44.0732 43.3309 44.0731 43.3307 44.0731 43.3304L44.5686 43.2638" fill="#B0D4FF" stroke="#4A95EE"/>
<path d="M25.9322 41.7863L25.9315 41.787L17.4829 49.755L17.4826 49.7553C17.1388 50.079 16.7302 50.2165 16.3273 50.1747C15.9372 50.1342 15.5997 49.9308 15.3638 49.6606C14.8888 49.1164 14.7558 48.1953 15.4778 47.5156L22.9842 40.4344C22.9843 40.4344 22.9844 40.4343 22.9845 40.4342C23.0901 40.3339 23.1191 40.1885 23.0725 40.0507C23.0263 39.9139 22.9267 39.8385 22.8077 39.8325C22.7813 39.8312 22.7643 39.8303 22.7536 39.8298C22.752 39.8307 22.7502 39.8317 22.7483 39.8328C22.658 39.8851 22.4789 40.0257 22.0575 40.4107C21.6121 40.8177 20.9413 41.4544 19.889 42.4531C19.0001 43.2968 17.8391 44.3988 16.3118 45.8388L16.311 45.8396C15.304 46.785 13.7443 46.0021 13.8183 44.6626M25.9322 41.7863L14.3176 44.6889M25.9322 41.7863C26.0317 41.6921 26.1036 41.6872 26.1459 41.6921C26.2024 41.6986 26.2773 41.7338 26.343 41.8102C26.4083 41.886 26.4419 41.9771 26.4425 42.0572C26.443 42.1261 26.4202 42.212 26.321 42.3052L26.321 42.3053M25.9322 41.7863L26.321 42.3053M13.8183 44.6626C13.8183 44.662 13.8184 44.6613 13.8184 44.6607L14.3176 44.6889M13.8183 44.6626C13.8183 44.663 13.8182 44.6633 13.8182 44.6637L14.3176 44.6889M13.8183 44.6626C13.8189 44.6495 13.8194 44.6354 13.8199 44.6201C13.8239 44.4915 13.8304 44.2869 13.9778 44.0405C14.1064 43.8257 14.3432 43.5714 14.7346 43.1877C15.1768 42.7541 15.8777 42.0988 16.9842 41.0641C17.8897 40.2175 19.0668 39.1169 20.5961 37.676L20.5964 37.6756C20.6956 37.5824 20.7184 37.4965 20.718 37.4275C20.7174 37.3473 20.6837 37.2558 20.6181 37.1794C20.5521 37.1025 20.4766 37.0667 20.4195 37.0599C20.3767 37.0548 20.3052 37.0596 20.2067 37.1523M14.3176 44.6889C14.3211 44.6189 14.3213 44.5621 14.3293 44.5064C14.3905 44.0796 14.9118 43.7187 20.9389 38.0399C21.7335 37.2929 20.6587 36.041 19.8642 36.7881L16.2403 40.2035C15.581 40.8225 14.5429 40.3315 14.5894 39.4118C14.592 39.3588 14.5931 39.3129 14.5989 39.2675C14.663 38.7609 15.3085 38.328 25.2464 28.952C26.2439 28.0128 27.5764 27.5628 28.8994 27.7252C29.455 27.7957 29.6024 27.9689 29.7599 27.9787C30.0045 27.9939 30.2737 27.6148 32.1365 25.844L32.1224 25.8277L32.5 25.5L32.8429 25.8639C32.8379 25.8686 32.8329 25.8733 32.828 25.878L33.5003 26.6528C33.6516 26.7127 33.8241 26.7872 34.0052 26.8654C34.1457 26.9261 34.2915 26.989 34.4364 27.0491L34.245 27.511L33.8674 27.8387L33.2045 27.0748C32.4244 26.7858 31.9676 26.8514 31.1543 27.929C30.1311 29.2717 30.4505 31.2389 31.8443 32.1245L35.3886 34.3775C35.3994 34.3635 35.4103 34.3496 35.4213 34.3358L35.8126 34.647L35.5444 35.0689L35.5358 35.0635C35.2573 35.5706 35.1257 36.1598 35.175 36.7514M20.2067 37.1523L20.2071 37.1519L19.8643 36.7882L20.2067 37.1523ZM20.2067 37.1523L16.5832 40.5674L16.5825 40.5681C15.5803 41.5089 14.0219 40.7354 14.09 39.3865C14.0903 39.3802 14.0906 39.3726 14.091 39.364C14.0934 39.3022 14.0979 39.1863 14.1292 39.0682C14.1686 38.9193 14.2408 38.786 14.3413 38.6477C14.5271 38.3923 14.8782 38.031 15.5232 37.4104C16.165 36.7928 17.1329 35.8861 18.5905 34.5206C20.1049 33.1019 22.148 31.1879 24.9033 28.5884L24.9037 28.588C26.0051 27.5509 27.4841 27.0477 28.9603 27.2289L28.9624 27.2292C29.3591 27.2795 29.5953 27.378 29.7455 27.4457M29.7455 27.4457C29.7094 27.4751 29.6873 27.4905 29.6745 27.4981C29.6735 27.4987 29.6731 27.499 29.6731 27.499C29.6732 27.4992 29.7209 27.4743 29.7945 27.4799C29.822 27.4819 29.8427 27.4887 29.8428 27.4885C29.8429 27.4884 29.8291 27.4835 29.7939 27.4676C29.7884 27.4651 29.7827 27.4625 29.7768 27.4598C29.7668 27.4553 29.7564 27.4506 29.7455 27.4457ZM29.7455 27.4457C29.775 27.4216 29.8139 27.3882 29.8646 27.3421C29.9731 27.2435 30.1141 27.1071 30.309 26.9167C30.3566 26.8702 30.407 26.8208 30.4606 26.7684C30.8424 26.3947 31.3814 25.8671 32.1571 25.1361L32.5362 24.7788L32.8777 25.1723L34.6227 27.1833L34.0536 27.9729C33.8712 27.8974 33.716 27.8301 33.5762 27.7695C33.3987 27.6926 33.2458 27.6263 33.0932 27.5673C32.8335 27.4669 32.6696 27.4281 32.5432 27.4278C32.3565 27.4274 32.0977 27.5091 31.5534 28.2302L31.552 28.2321C30.6976 29.3532 30.9778 30.9815 32.1125 31.7025L32.1125 31.7026L36.0808 34.225L36.5499 34.5232L36.204 34.9582C35.8182 35.4433 35.6206 36.0754 35.6732 36.709M35.6732 36.709C35.6731 36.7087 35.6731 36.7084 35.6731 36.7081L35.175 36.7514M35.6732 36.709C35.6732 36.7093 35.6732 36.7096 35.6732 36.7098L35.175 36.7514M35.6732 36.709C35.7368 37.4418 35.7981 38.0716 35.8512 38.617C35.9402 39.531 36.0061 40.2078 36.0211 40.7346C36.0467 41.6265 35.9321 42.1901 35.5409 42.8504L35.5404 42.8513C34.708 44.2495 34.0568 45.3564 33.5413 46.2328C32.8527 47.4035 32.406 48.1627 32.0927 48.6552C31.8234 49.0783 31.6174 49.3634 31.4077 49.5444C31.1562 49.7614 30.923 49.8088 30.7263 49.8447L30.7241 49.8451L30.7241 49.8451C30.265 49.927 29.8051 49.8141 29.4373 49.5174L29.4342 49.5148L29.4342 49.5148L29.1723 49.3C28.6002 48.8352 28.4291 48.0591 28.6936 47.3864L35.175 36.7514M26.321 42.3053L19.0853 49.1087L19.084 49.1099M26.321 42.3053L19.084 49.1099M19.084 49.1099C18.3634 49.7923 18.4967 50.7118 18.9744 51.2548C19.2111 51.524 19.5493 51.7255 19.9389 51.7644C20.3411 51.8046 20.7485 51.6663 21.0907 51.3425C21.0908 51.3424 21.091 51.3422 21.0911 51.3421L30.1582 42.7937C30.2568 42.7011 30.3283 42.6962 30.3711 42.7013C30.4282 42.7081 30.5036 42.7439 30.5697 42.8208C30.6353 42.8972 30.669 42.9887 30.6695 43.0689C30.67 43.1379 30.6472 43.2238 30.548 43.317L30.5467 43.3183M19.084 49.1099L30.5467 43.3183M30.5467 43.3183C30.5048 43.358 30.4729 43.3844 30.4373 43.4137M30.5467 43.3183L30.4373 43.4137M30.4373 43.4137L30.4362 43.4146M30.4373 43.4137L30.4362 43.4146M30.4362 43.4146L30.4316 43.4185M30.4362 43.4146L30.4316 43.4185M30.4316 43.4185C30.3977 43.4464 30.3443 43.4905 30.2918 43.5477M30.4316 43.4185L30.2918 43.5477M30.2918 43.5477C30.1742 43.6757 30.0963 43.8289 30.0066 44.0359M30.2918 43.5477L30.0066 44.0359M30.0066 44.0359C29.9034 44.274 29.7503 44.6695 29.4855 45.353M30.0066 44.0359L29.4855 45.353M29.4855 45.353C29.2904 45.8568 29.0347 46.5172 28.6937 47.3862L29.4855 45.353Z" fill="#B0D4FF" stroke="#4A95EE"/>
<path d="M12.8852 39.511C12.3834 40.88 13.0706 42.3089 14.3305 42.8325L13.496 43.6615C12.138 45.0142 12.6016 47.3376 14.4451 47.9975C13.1524 50.2991 15.6668 52.8571 18.0175 51.5536C18.6828 53.3916 21.0117 53.8497 22.3643 52.5026L24.1424 50.73L25.6531 52.2353C25.3695 55.7477 26.9239 57.0185 28.5547 58.6384L27.7093 59.4837C26.4767 60.7109 26.4767 62.7016 27.7093 63.9288L31.8489 68.052C32.4598 68.6574 33.2561 68.9629 34.0578 68.9629C35.585 68.9629 36.294 68.0302 37.1394 67.1903C38.8083 68.8538 40.9626 68.0739 41.628 66.4813L42.4516 67.3048C43.8151 68.6629 46.144 68.1448 46.8094 66.3067C49.111 67.583 51.7017 65.0469 50.4091 62.7234C52.2798 62.0471 52.7543 59.7183 51.4071 58.3766L48.6965 55.6768L51.2108 53.1734C54.9905 53.4461 56.2122 51.6681 58.6501 49.2465L60.4391 51.03C61.6553 52.2408 63.6406 52.2408 64.8568 51.03L69.0783 46.8249C69.6728 46.2304 70 45.4396 70 44.5996C70 42.8925 68.8819 42.1835 67.1257 40.4382C67.622 39.0802 66.9512 37.6457 65.6749 37.1221L66.5094 36.2931C67.8729 34.9351 67.4039 32.6171 65.5604 31.9572C66.853 29.6447 64.3223 27.1031 61.988 28.4011C61.3226 26.5522 58.9883 26.1159 57.6411 27.4521L55.8631 29.2247L54.3469 27.7194C54.625 24.1906 53.0815 22.9416 51.4508 21.3163L52.2962 20.4764C53.5288 19.2492 53.5288 17.2585 52.2962 16.0314L48.1565 11.9081C46.9403 10.6973 44.955 10.6973 43.7388 11.9081L42.8716 12.7698C41.2081 11.1118 39.0537 11.8699 38.3829 13.4789L37.5539 12.6553C36.1958 11.3027 33.8669 11.8045 33.1961 13.6534C30.8727 12.3662 28.3147 14.9296 29.5964 17.2367C28.4729 17.6403 27.8293 18.6602 27.8293 19.7292C27.8293 21.1527 28.5983 21.5836 31.309 24.2779L28.7947 26.7813C25.1132 26.5249 23.9678 28.1066 21.3553 30.7082L19.561 28.9247C18.3447 27.7139 16.3594 27.7139 15.1432 28.9247L10.9217 33.1298C10.3272 33.7243 10 34.5097 10 35.3496C10 37.0567 11.1181 37.7657 12.8743 39.511H12.8852ZM18.4211 30.0755L20.21 31.8535L13.8615 38.1748L12.0889 36.4077C11.4999 35.8186 11.4999 34.8696 12.0889 34.2806L16.3103 30.0755C16.8939 29.4974 17.8375 29.4974 18.4211 30.0755ZM21.9498 32.4317C25.3641 29.0283 25.6477 28.1939 29.0674 28.4284C29.5637 28.4666 29.4655 28.4284 32.4816 25.4232C34.7341 27.6648 34.5269 27.343 33.9651 27.1522C32.8088 26.7649 31.5053 27.1903 30.7963 28.183L30.5999 28.4611C29.6291 29.8192 30.06 31.7063 31.5162 32.4971L35.6777 34.7496C35.2359 35.3387 35.0341 36.0859 35.1377 36.8222C35.694 40.6727 35.9886 41.3763 35.3722 42.4889C31.6199 49.2574 31.8653 49.1047 31.1726 49.2683C30.8508 49.3392 30.529 49.2792 30.2618 49.0938L29.9836 48.8974C29.5691 48.6084 29.411 48.0902 29.58 47.6103C31.0145 43.5252 30.709 44.1851 31.1344 43.7543C31.9035 42.9907 30.7472 41.829 29.9782 42.598C28.5765 43.9942 23.3352 49.2138 21.2026 51.3354C20.2536 52.2844 18.8301 50.8936 19.7846 49.9337L26.7767 42.9689C27.5457 42.2053 26.3894 41.0436 25.6204 41.8072L17.4448 49.9501C16.8067 50.5882 15.7213 50.1519 15.7268 49.2683C15.7268 48.6956 15.514 49.0665 23.297 41.3163C24.066 40.5527 22.9097 39.391 22.1407 40.1546L16.0595 46.214C15.4213 46.8467 14.336 46.4213 14.3414 45.5323C14.3414 44.9432 14.1342 45.3196 20.7281 38.7584C21.4971 37.9948 20.3409 36.8331 19.5719 37.5967L16.0649 41.0872C15.4213 41.7308 14.3414 41.2836 14.3469 40.4055C14.3469 39.811 14.1342 40.2037 21.9389 32.4262L21.9498 32.4317ZM29.4819 19.7183C29.4819 19.162 29.94 18.6984 30.5072 18.6929C31.0854 18.6657 30.7254 18.4911 38.1265 25.865C38.8956 26.6286 40.0464 25.4723 39.2828 24.7087L31.1999 16.6586C30.8072 16.2659 30.8236 15.6332 31.2163 15.2405C31.5708 14.886 32.0235 14.9405 31.9416 14.9405C32.4598 14.9405 32.5416 15.126 33.8124 16.3913C40.2427 22.7944 39.9209 22.6198 40.4063 22.6198C41.1317 22.6198 41.4971 21.7363 40.9845 21.2236C34.6087 14.8751 34.685 15.1205 34.685 14.5424C34.685 13.9915 35.1377 13.5225 35.7104 13.517C36.2831 13.5116 35.9558 13.348 42.4298 19.7946C43.1988 20.5582 44.3496 19.3965 43.586 18.6329L40.1173 15.1805C39.73 14.7987 39.7355 14.1606 40.1336 13.7625C40.4881 13.408 40.9408 13.4625 40.8645 13.4625C41.3881 13.4625 41.5626 13.7461 42.3098 14.4933L49.7273 21.8835C52.1053 24.2506 52.9616 24.676 52.7052 27.9594C52.667 28.4393 52.7979 28.4611 54.7232 30.3755C51.2926 33.7897 51.8162 33.3698 51.9907 32.8734C52.3998 31.7172 51.9907 30.4137 50.9872 29.7046L50.709 29.5083C49.3564 28.5538 47.4639 29.0011 46.6621 30.4519L44.6441 34.0897C44.4914 34.0897 44.3387 34.0897 44.186 34.1115C40.1882 34.7278 39.5882 35.006 38.492 34.4115C31.9962 30.8936 31.9144 31.03 31.7508 30.3373C31.6744 30.0155 31.7398 29.6883 31.9362 29.4156L32.138 29.1374C32.4325 28.7229 32.9779 28.5429 33.4524 28.7066L36.9921 29.9064C37.3575 30.2719 37.4884 30.4519 37.8757 30.4519C38.5956 30.4519 38.9719 29.5738 38.4538 29.0556C29.2855 19.9255 29.4928 20.3182 29.4928 19.7237L29.4819 19.7183ZM47.0166 13.048C51.4399 17.4494 51.598 17.3949 51.598 18.2293C51.598 19.0202 51.1017 19.3474 50.3054 20.1383L44.0442 13.9043L44.9059 13.0425C45.4895 12.4644 46.4331 12.4644 47.0166 13.0425V13.048ZM60.2263 29.9937L53.2343 36.9585C52.4652 37.7221 53.6215 38.8838 54.3905 38.1148L62.5661 29.9719C63.5206 29.0229 64.9386 30.4246 63.9842 31.3736L56.7194 38.6111C56.2067 39.1238 56.5721 40.0073 57.2975 40.0073C57.7775 40.0073 57.5157 40.1273 63.9569 33.7134C64.6005 33.0752 65.6804 33.5116 65.6749 34.3951C65.6749 34.9842 65.8822 34.6078 59.2883 41.169C58.5192 41.9326 59.6755 43.0943 60.4445 42.3308L63.9515 38.8402C64.5896 38.2075 65.6695 38.6329 65.6695 39.5274C65.6695 40.1546 65.8549 39.7565 55.3777 50.1955C54.4123 51.1554 53.0815 51.6572 51.7289 51.5645C50.2236 51.4554 50.9545 51.1227 47.5457 54.5151L45.6695 52.6498C47.2566 53.1898 48.3692 52.9661 49.4273 51.4772C50.3981 50.1246 49.9727 48.232 48.511 47.4412L44.3496 45.1887C44.7914 44.5996 44.9932 43.8524 44.8896 43.1161C44.3332 39.2656 44.0387 38.562 44.655 37.4439C48.2874 30.8882 48.1511 30.8282 48.8547 30.67C49.1764 30.5991 49.4982 30.6591 49.7655 30.8445L50.0436 31.0409C50.4581 31.33 50.6163 31.8481 50.4472 32.328C49.0128 36.4131 49.3182 35.7532 48.8874 36.1841C48.1184 36.9476 49.2746 38.1093 50.0436 37.3458L58.8192 28.6084C59.7682 27.6594 61.1917 29.0502 60.2373 30.0046L60.2263 29.9937ZM67.9275 45.6523L63.706 49.8573C63.1225 50.4355 62.1789 50.4355 61.5953 49.8573L59.8064 48.0793L66.1549 41.7581L67.9275 43.5252C68.5165 44.1142 68.5165 45.0632 67.9275 45.6523ZM50.54 60.22C50.54 60.7818 50.0764 61.2399 49.5146 61.2454C48.9419 61.2672 49.2528 61.4036 41.8953 54.0733C41.1263 53.3098 39.9755 54.4715 40.739 55.235C49.3182 63.7761 49.111 63.3834 49.111 63.9779C49.111 64.5724 48.6474 64.9978 48.0856 65.0032C47.453 64.965 47.8784 65.2159 40.1936 57.5585C39.4246 56.7949 38.2738 57.9511 39.0374 58.7202L45.0532 64.7087C45.7186 65.5105 45.1023 66.4158 44.3169 66.4267C43.7388 66.4322 44.0715 66.5958 37.5975 60.1491C36.8285 59.3856 35.6777 60.5418 36.4412 61.3108C40.2373 65.0959 40.1991 64.9105 40.1991 65.4614C40.1991 66.3613 39.0919 66.8194 38.4647 66.1922L30.3054 58.0657C28.5929 56.3531 27.0657 55.2623 27.2675 52.7589C27.3875 51.319 27.5948 51.8481 25.315 49.5792C28.7456 46.1595 28.222 46.5849 28.0529 47.0812C26.9457 50.2173 31.6635 52.6007 33.3815 49.4974L35.3995 45.8595C35.5522 45.8595 35.7049 45.8595 35.8577 45.8323C39.8337 45.216 40.4554 44.9378 41.5517 45.5323C48.3529 49.2138 48.1402 48.9465 48.2929 49.6065C48.3692 49.9282 48.2983 50.2555 48.102 50.5282L47.9057 50.8063C47.6111 51.2209 47.0712 51.3954 46.5912 51.2372C42.5061 49.8519 43.1661 50.1519 42.7461 49.7374C41.9771 48.9738 40.8263 50.1355 41.5899 50.8991C50.7581 60.0291 50.5509 59.6419 50.5509 60.2309L50.54 60.22ZM33.0052 66.8849C28.511 62.4126 28.4238 62.5325 28.4238 61.6981C28.4238 60.8636 28.9201 60.58 29.7164 59.7892L35.9776 66.0231L35.1159 66.8849C34.5323 67.463 33.5888 67.463 33.0052 66.8849ZM36.7576 36.5877C36.7139 36.2713 36.7848 35.9114 37.1503 35.5514C39.4355 36.7895 39.7737 36.4458 43.6624 35.8459C43.0897 36.8822 42.468 37.8366 42.7025 39.451C43.2806 43.427 43.4879 43.7761 42.937 44.3269C42.8497 44.4142 42.9588 44.436 42.3262 44.0924C40.6736 43.198 39.4519 43.6234 36.3649 44.0924C37.7448 41.5999 37.5157 41.7854 36.763 36.5931L36.7576 36.5877Z" fill="#4A95EE"/>
</svg>
