<svg width="80" height="80" viewBox="0 0 80 80" fill="none" xmlns="http://www.w3.org/2000/svg">
<circle cx="49" cy="67" r="5" fill="#BCDCD1"/>
<path d="M50.9791 61.5338L54.4168 51.3481C55.9158 46.744 53.3891 41.7794 48.786 40.2807C44.1828 38.782 39.2175 41.3074 37.7185 45.9114L32.6646 61.4343C31.4238 65.2452 27.3141 67.3361 23.4104 66.0651C19.5995 64.8244 17.5086 60.7147 18.7494 56.9037L20.6386 51.1011C21.2951 50.9599 21.8635 50.4903 22.0867 49.8048L25.5994 39.0159C32.6922 40.3176 39.8514 36.2092 42.1445 29.1663C42.3674 28.4817 42.1844 27.7675 41.7372 27.2659L44.8412 17.7321C45.5075 15.6857 44.3851 13.4795 42.3386 12.8132L40.2263 12.1255C40.0851 11.469 39.6155 10.9006 38.93 10.6774L37.0746 10.0734C36.0505 9.7399 34.9486 10.3005 34.6152 11.3246C34.2817 12.3488 34.8423 13.4506 35.8665 13.7841L37.7218 14.3881C38.4064 14.611 39.1206 14.428 39.6222 13.9809L41.7346 14.6686C42.7578 15.0018 43.319 16.1048 42.9859 17.128L39.8818 26.6618C39.2254 26.8031 38.6569 27.2726 38.4337 27.9581C36.6019 33.5845 30.5332 36.6721 24.9069 34.8402C19.2805 33.0084 16.193 26.9397 18.0248 21.3133C18.2477 20.6287 18.0647 19.9145 17.6175 19.4129L20.7216 9.87917C21.0547 8.85594 22.1578 8.29473 23.181 8.62788L24.3656 9.01358C24.5069 9.67005 24.9764 10.2385 25.662 10.4617L27.5174 11.0657C28.5415 11.3992 29.6433 10.8386 29.9768 9.81446C30.3102 8.7903 29.7497 7.68847 28.7255 7.35502L26.8701 6.75095C26.1855 6.52805 25.4713 6.71106 24.9697 7.15822L23.7851 6.77252C21.7386 6.10623 19.5325 7.22863 18.8662 9.27509L15.7622 18.8089C15.1057 18.9501 14.5373 19.4196 14.3141 20.1052C12.021 27.1481 15.3891 34.684 21.8884 37.8086L18.3757 48.5975C18.1528 49.2822 18.3358 49.9964 18.783 50.498L16.8937 56.3006C15.3198 61.1347 17.9719 66.3475 22.8988 67.9516C27.7329 69.5255 32.9457 66.8734 34.5196 62.0393L39.5739 46.5155C40.7395 42.9356 44.6011 40.9702 48.1819 42.136C51.7627 43.3019 53.727 47.1641 52.5614 50.744L49.1301 60.9102C47.1166 60.7102 45.1579 61.9234 44.5064 63.9244C43.7543 66.2343 45.021 68.7254 47.3309 69.4775C49.6408 70.2296 52.131 68.9627 52.8833 66.6518C53.5273 64.674 52.683 62.5718 50.9791 61.5338ZM47.9353 67.6212C46.6486 67.2023 45.9431 65.8143 46.3621 64.5276C46.6777 63.5581 47.5433 62.9196 48.501 62.8426L48.2576 63.5903C47.6961 63.7358 47.2181 64.1517 47.0254 64.7435C46.7251 65.6656 47.2294 66.6568 48.1515 66.957C49.0736 67.2572 50.0648 66.753 50.365 65.8309C50.5486 65.2668 50.4291 64.679 50.099 64.237L50.3458 63.4791C51.0333 64.1093 51.3355 65.1034 51.0283 66.0468C50.6094 67.3335 49.2219 68.0402 47.9353 67.6212Z" fill="#468671"/>
<path d="M58.5853 14C52.3239 14 47.2292 19.0946 47.2292 25.3561C47.2292 26.8693 47.5297 28.3444 48.1229 29.7473L46.0946 34.0205C45.9405 34.3444 45.9766 34.7268 46.1892 35.0156C46.4019 35.3044 46.759 35.4537 47.1092 35.4049L52.1609 34.7063C54.0644 36.0195 56.277 36.7112 58.5853 36.7112C64.8468 36.7112 69.9414 31.6166 69.9414 25.3551C69.9414 19.0946 64.8468 14 58.5853 14ZM64.7414 25.7268C64.7414 26.4273 64.1736 26.9951 63.4731 26.9951H60.839V29.6293C60.839 30.3298 60.2712 30.8976 59.5707 30.8976H58.2048C57.5044 30.8976 56.9366 30.3298 56.9366 29.6293V26.9951H54.3024C53.6019 26.9951 53.0341 26.4273 53.0341 25.7268V24.361C53.0341 23.6605 53.6019 23.0927 54.3024 23.0927H56.9366V20.4585C56.9366 19.758 57.5044 19.1902 58.2048 19.1902H59.5707C60.2712 19.1902 60.839 19.758 60.839 20.4585V23.0927H63.4731C64.1736 23.0927 64.7414 23.6605 64.7414 24.361V25.7268Z" fill="#BCDCD1"/>
</svg>
