<svg width="48" height="45" viewBox="0 0 48 45" fill="none" xmlns="http://www.w3.org/2000/svg">
<path d="M13.6171 13.0069C18.9027 13.0069 23.1836 17.2526 23.1836 22.4948C23.1836 27.737 18.9027 31.9827 13.6171 31.9827C8.33144 31.9827 4.05059 27.737 4.05059 22.4948C4.05059 17.2526 8.33144 13.0069 13.6171 13.0069ZM19.7191 16.4429C16.3489 13.1003 10.8853 13.1003 7.51505 16.4429C4.14479 19.7855 4.14479 25.2042 7.51505 28.5467C10.8853 31.8893 16.3489 31.8893 19.7191 28.5467C23.0894 25.2042 23.0894 19.7855 19.7191 16.4429ZM14.0881 9C21.4043 9.23875 27.2447 15.2076 27.2447 22.4948C27.2447 29.782 21.4147 35.7509 14.0986 36V44.0657H40.4954V38.0138C40.4954 37.7543 40.7048 37.5467 40.9664 37.5467H47.0685V0.923876H14.0986V9H14.0881ZM13.1461 36C5.82992 35.7509 0 29.7924 0 22.4948C0 15.1972 5.82992 9.23875 13.1461 9V0.467128C13.1461 0.207612 13.3554 0 13.6171 0H47.529C47.7907 0 48 0.207612 48 0.467128V38.0138C48 38.1384 47.9477 38.263 47.8639 38.346L41.249 44.9066L40.9664 45H13.6171C13.3554 45 13.1461 44.7924 13.1461 44.5329V36ZM22.587 13.5986C17.6363 8.68858 9.60837 8.68858 4.65765 13.5986C-0.293066 18.5086 -0.293066 26.4706 4.65765 31.3806C9.60837 36.2907 17.6363 36.2907 22.587 31.3806C27.5377 26.4706 27.5377 18.519 22.587 13.5986ZM35.7854 24.7474C36.403 24.7474 36.403 25.6817 35.7854 25.6817H29.6939C29.0763 25.6817 29.0763 24.7474 29.6939 24.7474H35.7854ZM32.771 38.9066C33.3886 38.9066 33.3886 39.8408 32.771 39.8408H23.0266C22.4091 39.8408 22.4091 38.9066 23.0266 38.9066H32.771ZM35.7854 7.21453C36.403 7.21453 36.403 8.14879 35.7854 8.14879H29.6939C29.0763 8.14879 29.0763 7.21453 29.6939 7.21453H35.7854ZM35.7854 15.9862C36.403 15.9862 36.403 16.9204 35.7854 16.9204H29.6834C29.0659 16.9204 29.0659 15.9862 29.6834 15.9862H35.7854ZM35.7854 11.5952C36.403 11.5952 36.403 12.5294 35.7854 12.5294H29.6939C29.0763 12.5294 29.0763 11.5952 29.6939 11.5952H35.7854ZM35.7854 20.3668C36.403 20.3668 36.403 21.301 35.7854 21.301H29.6939C29.0763 21.301 29.0763 20.3668 29.6939 20.3668H35.7854ZM35.7854 33.5087C36.403 33.5087 36.403 34.4429 35.7854 34.4429H29.6834C29.0659 34.4429 29.0659 33.5087 29.6834 33.5087H35.7854ZM35.7854 29.128C36.403 29.128 36.403 30.0623 35.7854 30.0623H29.6834C29.0659 30.0623 29.0659 29.128 29.6834 29.128H35.7854ZM46.3881 38.481H41.427V43.4014L46.3881 38.481Z" fill="#E4001C"/>
<path d="M10.1212 20.7406C10.1212 21.353 11.0632 21.353 11.0632 20.7406C11.0632 18.488 13.8264 17.3461 15.4383 18.9447C16.5687 20.0658 16.4012 21.9136 15.1033 22.8167C14.4963 23.2423 13.5438 23.6679 13.2403 24.8824C13.0937 25.4845 14.0043 25.7025 14.1509 25.1108C14.4649 23.834 15.9093 23.917 16.7361 22.3392C17.9398 20.0451 16.2651 17.2734 13.6275 17.2734C11.6912 17.2734 10.1212 18.8305 10.1212 20.7406Z" fill="#FF9AA3"/>
<path d="M14.0881 26.8236C14.0881 26.2112 13.1461 26.2112 13.1461 26.8236V27.2596C13.1461 27.8721 14.0881 27.8721 14.0881 27.2596V26.8236Z" fill="#FF9AA3"/>
<path d="M39.1138 28.713C39.1138 29.3255 40.0558 29.3255 40.0558 28.713C40.0558 27.8929 40.7362 27.2286 41.563 27.2286C43.0388 27.2286 43.625 29.1075 42.4318 29.9379C42.0445 30.2078 41.4584 30.4777 41.1967 31.2355C40.9978 31.8064 41.8875 32.1075 42.0864 31.5261C42.2224 31.1005 42.683 30.8929 42.9656 30.6957C44.2006 29.8341 44.3681 28.0694 43.29 27.0002C41.7514 25.4742 39.1138 26.5642 39.1138 28.713Z" fill="#FF9AA3"/>
<path d="M42.034 32.6784C42.034 32.0659 41.092 32.0659 41.092 32.6784V32.9587C41.092 33.5711 42.034 33.5711 42.034 32.9587V32.6784Z" fill="#FF9AA3"/>
<path d="M39.1138 18.5088C39.1138 19.1213 40.0558 19.1213 40.0558 18.5088C40.0558 17.6888 40.7362 17.014 41.563 17.0348C43.0388 17.0348 43.625 18.9137 42.4318 19.7441C42.0445 20.0244 41.4584 20.2839 41.1967 21.0417C40.9978 21.6127 41.8875 21.9137 42.0864 21.3324C42.2224 20.9068 42.683 20.6992 42.9656 20.5019C44.2006 19.63 44.3681 17.8653 43.29 16.796C41.7514 15.2701 39.1138 16.3601 39.1138 18.5088Z" fill="#FF9AA3"/>
<path d="M42.034 22.4639C42.034 21.8514 41.092 21.8514 41.092 22.4639V22.7545C41.092 23.367 42.034 23.367 42.034 22.7545V22.4639Z" fill="#FF9AA3"/>
<path d="M39.1138 8.29431C39.1138 8.90677 40.0558 8.90677 40.0558 8.29431C40.0558 7.47425 40.7362 6.79951 41.563 6.79951C43.0388 6.79951 43.625 8.6784 42.4318 9.50885C42.0445 9.78912 41.4584 10.0486 41.1967 10.8064C40.9978 11.3877 41.8875 11.6888 42.0864 11.1075C42.2224 10.6819 42.683 10.4742 42.9656 10.277C44.2006 9.41542 44.3681 7.65072 43.29 6.58151C41.7514 5.05556 39.1138 6.14553 39.1138 8.29431Z" fill="#FF9AA3"/>
<path d="M42.034 12.2597C42.034 11.6473 41.092 11.6473 41.092 12.2597V12.54C41.092 13.1524 42.034 13.1524 42.034 12.54V12.2597Z" fill="#FF9AA3"/>
</svg>
