<svg width="200" height="100" viewBox="0 0 228 141" fill="none" xmlns="http://www.w3.org/2000/svg">
    <g clip-path="url(#clip0_98_947)">
        <path d="M28.3224 3.33796L150.349 20.9656L141.984 78.8691L19.9578 61.2415L28.3224 3.33796Z" fill="#F1F1F1"/>
        <path d="M31.0944 8.80725L146.142 25.4268L139.163 73.7375L24.1156 57.118L31.0944 8.80725Z" fill="white"/>
        <path d="M28.8578 7.08719e-05L150.884 17.6277L150.135 22.8117L28.1089 5.18411L28.8578 7.08719e-05Z"
              fill="#E5E5E5"/>
        <path d="M146.591 21.0903C146.055 21.0903 145.62 20.6557 145.62 20.1195C145.62 19.5833 146.055 19.1487 146.591 19.1487C147.127 19.1487 147.562 19.5833 147.562 20.1195C147.562 20.6557 147.127 21.0903 146.591 21.0903Z"
              fill="white"/>
        <path d="M142.944 20.5632C142.408 20.5632 141.973 20.1286 141.973 19.5924C141.973 19.0562 142.408 18.6216 142.944 18.6216C143.48 18.6216 143.915 19.0562 143.915 19.5924C143.915 20.1286 143.48 20.5632 142.944 20.5632Z"
              fill="white"/>
        <path d="M139.297 20.0366C138.761 20.0366 138.326 19.602 138.326 19.0658C138.326 18.5296 138.761 18.095 139.297 18.095C139.833 18.095 140.268 18.5296 140.268 19.0658C140.268 19.602 139.833 20.0366 139.297 20.0366Z"
              fill="white"/>
        <path d="M0.291199 28.2524H123.584V86.757H0.291199V28.2524Z" fill="#E6E6E6"/>
        <path d="M3.81655 33.2695H120.058V82.0817H3.81655V33.2695Z" fill="white"/>
        <path d="M0.343735 24.8723H123.637V30.1102H0.343735V24.8723Z" fill="#CBCBCB"/>
        <path d="M119.744 28.9231C119.208 28.9231 118.773 28.4884 118.773 27.9523C118.773 27.4161 119.208 26.9814 119.744 26.9814C120.28 26.9814 120.715 27.4161 120.715 27.9523C120.715 28.4884 120.28 28.9231 119.744 28.9231Z"
              fill="white"/>
        <path d="M116.059 28.9231C115.523 28.9231 115.089 28.4884 115.089 27.9523C115.089 27.4161 115.523 26.9814 116.059 26.9814C116.596 26.9814 117.03 27.4161 117.03 27.9523C117.03 28.4884 116.596 28.9231 116.059 28.9231Z"
              fill="white"/>
        <path d="M112.374 28.9231C111.838 28.9231 111.403 28.4884 111.403 27.9523C111.403 27.4161 111.838 26.9814 112.374 26.9814C112.91 26.9814 113.345 27.4161 113.345 27.9523C113.345 28.4884 112.91 28.9231 112.374 28.9231Z"
              fill="white"/>
        <path d="M36.7052 40.6907H53.0764V41.9212H36.7052V40.6907Z" fill="#E6E6E6"/>
        <path d="M27.7957 44.3027H53.0764V45.5332H27.7957V44.3027Z" fill="#E6E6E6"/>
        <path d="M32.2104 47.7432H52.8136V48.9737H32.2104V47.7432Z" fill="#E6E6E6"/>
        <path d="M41.0486 51.5181H53.0764V52.7486H41.0486V51.5181Z" fill="#E6E6E6"/>
        <path d="M34.9233 55.2053H53.0764V56.4358H34.9233V55.2053Z" fill="#E6E6E6"/>
        <path d="M58.5336 40.3035H60.5382V42.3081H58.5336V40.3035Z" fill="#E6E6E6"/>
        <path d="M58.5336 43.916H60.5382V45.9207H58.5336V43.916Z" fill="#E6E6E6"/>
        <path d="M58.5336 47.3562H60.5382V49.3608H58.5336V47.3562Z" fill="#E6E6E6"/>
        <path d="M58.5336 51.1311H60.5382V53.1357H58.5336V51.1311Z" fill="#E6E6E6"/>
        <path d="M58.5336 54.8179H60.5382V56.8225H58.5336V54.8179Z" fill="#E6E6E6"/>
        <path d="M36.7052 58.9153H53.0764V60.1458H36.7052V58.9153Z" fill="#E6E6E6"/>
        <path d="M27.7957 62.5276H53.0764V63.7581H27.7957V62.5276Z" fill="#E6E6E6"/>
        <path d="M32.2104 65.9678H52.8136V67.1983H32.2104V65.9678Z" fill="#E6E6E6"/>
        <path d="M41.0486 69.7427H53.0764V70.9732H41.0486V69.7427Z" fill="#E6E6E6"/>
        <path d="M34.9233 73.4299H53.0764V74.6604H34.9233V73.4299Z" fill="#E6E6E6"/>
        <path d="M58.5336 58.5283H60.5382V60.533H58.5336V58.5283Z" fill="#E6E6E6"/>
        <path d="M58.5336 62.1404H60.5382V64.145H58.5336V62.1404Z" fill="#E6E6E6"/>
        <path d="M58.5336 65.5808H60.5382V67.5855H58.5336V65.5808Z" fill="#E6E6E6"/>
        <path d="M58.5336 69.3557H60.5382V71.3604H58.5336V69.3557Z" fill="#E6E6E6"/>
        <path d="M58.5336 73.0427H60.5382V75.0474H58.5336V73.0427Z" fill="#E6E6E6"/>
        <path d="M88.4952 68.5674H104.866V69.7979H88.4952V68.5674Z" fill="#E6E6E6"/>
        <path d="M86.4538 71.7646H107.057V72.9951H86.4538V71.7646Z" fill="#E6E6E6"/>
        <path d="M96.6754 52.5264C95.0705 52.5264 93.7695 51.2254 93.7695 49.6205C93.7695 48.0156 95.0705 46.7146 96.6754 46.7146C98.2803 46.7146 99.5813 48.0156 99.5813 49.6205C99.5813 51.2254 98.2803 52.5264 96.6754 52.5264Z"
              fill="white"/>
        <path d="M91.7136 58.5304C94.9621 59.6707 98.5044 59.657 101.744 58.4916L101.746 58.4902L99.5812 54.2168H93.7695L91.7136 58.5304Z"
              fill="white"/>
        <path d="M97.2678 52.4738C100.335 52.4738 102.83 49.8232 102.83 46.5651C102.83 43.3071 100.335 40.6565 97.2678 40.6565C94.2007 40.6565 91.7055 43.3071 91.7055 46.5651C91.7055 49.8232 94.2007 52.4738 97.2678 52.4738ZM97.2678 42.1495C99.5116 42.1495 101.337 44.1303 101.337 46.5651C101.337 48.9999 99.5116 50.9808 97.2678 50.9808C95.0239 50.9808 93.1985 48.9999 93.1985 46.5651C93.1985 44.1303 95.0239 42.1495 97.2678 42.1495Z"
              fill="#E6E6E6"/>
        <path d="M92.0006 62.7708H102.535C103.464 62.7698 104.355 62.4003 105.011 61.7434C105.668 61.0865 106.038 60.1959 106.039 59.267V48.9338C106.038 48.2978 105.785 47.6881 105.336 47.2383C104.886 46.7886 104.276 46.5356 103.64 46.5349H90.8955C90.2595 46.5356 89.6498 46.7886 89.2001 47.2383C88.7503 47.6881 88.4974 48.2978 88.4967 48.9338V59.267C88.4977 60.1959 88.8672 61.0865 89.5241 61.7434C90.181 62.4003 91.0716 62.7698 92.0006 62.7708Z"
              fill="#E6E6E6"/>
        <path d="M95.2149 52.4135C95.2146 52.0486 95.3116 51.6902 95.4959 51.3752C95.6802 51.0603 95.9451 50.8001 96.2634 50.6216C96.5816 50.4431 96.9417 50.3526 97.3066 50.3595C97.6714 50.3664 98.0278 50.4704 98.3391 50.6609C98.6504 50.8513 98.9053 51.1213 99.0775 51.443C99.2497 51.7647 99.3331 52.1265 99.319 52.4912C99.3049 52.8558 99.1939 53.2101 98.9973 53.5176C98.8008 53.825 98.5259 54.0746 98.2008 54.2404V57.4522H96.3346V54.2404C95.9977 54.0687 95.7148 53.8072 95.5172 53.4848C95.3196 53.1624 95.215 52.7917 95.2149 52.4135Z"
              fill="white"/>
        <path d="M160.168 137.651H156.845L155.263 124.832L160.169 124.832L160.168 137.651Z" fill="#FFB8B8"/>
        <path d="M154.471 136.701H160.88V140.736H150.435C150.435 140.207 150.539 139.682 150.742 139.192C150.945 138.703 151.242 138.258 151.617 137.883C151.992 137.508 152.437 137.211 152.926 137.008C153.416 136.805 153.941 136.701 154.471 136.701Z"
              fill="#2F2E41"/>
        <path d="M176.704 137.651H173.381L171.799 124.832L176.705 124.832L176.704 137.651Z" fill="#FFB8B8"/>
        <path d="M171.007 136.701H177.416V140.736H166.971C166.971 140.207 167.075 139.682 167.278 139.192C167.481 138.703 167.778 138.258 168.153 137.883C168.528 137.508 168.973 137.211 169.462 137.008C169.952 136.805 170.477 136.701 171.007 136.701Z"
              fill="#2F2E41"/>
        <path d="M143.496 91.8073C143.257 91.455 143.098 91.0546 143.031 90.6343C142.963 90.2139 142.988 89.7839 143.105 89.3744C143.221 88.965 143.426 88.586 143.705 88.2643C143.984 87.9426 144.33 87.686 144.719 87.5125L156.016 56.3743L161.576 59.408L148.676 89.1649C148.924 89.8373 148.917 90.5774 148.656 91.245C148.395 91.9125 147.898 92.4611 147.26 92.7869C146.621 93.1126 145.886 93.1928 145.192 93.0122C144.498 92.8317 143.895 92.4029 143.496 91.8073Z"
              fill="#FFB8B8"/>
        <path d="M175.006 97.6582C174.637 97.4465 174.319 97.1563 174.074 96.8082C173.828 96.46 173.663 96.0624 173.588 95.6433C173.513 95.2242 173.531 94.7938 173.641 94.3824C173.75 93.971 173.949 93.5886 174.222 93.2622L170.722 60.3232L177.049 60.6123L178.503 93.0121C179.021 93.5076 179.339 94.1759 179.397 94.8903C179.455 95.6047 179.249 96.3157 178.818 96.8884C178.387 97.4611 177.761 97.8557 177.059 97.9976C176.356 98.1395 175.626 98.0188 175.006 97.6582Z"
              fill="#FFB8B8"/>
        <path d="M164.914 50.6064C168.591 50.6064 171.572 47.6255 171.572 43.9483C171.572 40.2712 168.591 37.2903 164.914 37.2903C161.237 37.2903 158.256 40.2712 158.256 43.9483C158.256 47.6255 161.237 50.6064 164.914 50.6064Z"
              fill="#FFB8B8"/>
        <path d="M174.964 90.1669H154.891L154.915 90.0107C154.951 89.7772 158.493 66.5786 155.881 58.9892C155.619 58.2433 155.642 57.4269 155.946 56.6971C156.249 55.9672 156.812 55.3755 157.526 55.0358C161.259 53.2778 168.426 51.113 174.474 56.3666C175.364 57.1525 176.059 58.1346 176.504 59.2353C176.949 60.3361 177.132 61.5253 177.039 62.7089L174.964 90.1669Z"
              fill="#33A5D9"/>
        <path d="M158.746 70.0069L149.709 68.1735L153.945 58.1354C154.199 57.1632 154.828 56.3312 155.694 55.8219C156.56 55.3126 157.593 55.1677 158.566 55.4188C159.538 55.67 160.372 56.2967 160.883 57.1616C161.395 58.0265 161.542 59.0589 161.293 60.0323L158.746 70.0069Z"
              fill="#33A5D9"/>
        <path d="M170.321 73.4112L169.777 60.9573C169.365 58.6162 170.705 56.403 172.767 56.0413C174.828 55.6809 176.841 57.3046 177.255 59.6629L179.297 71.2998L170.321 73.4112Z"
              fill="#33A5D9"/>
        <path d="M174.296 88.6758C177.526 100.977 177.878 116.616 177.007 133.675L172.67 133.133L164.808 100.603L160.471 133.675L155.591 133.404C154.134 115.505 152.714 100.138 155.049 90.0312L174.296 88.6758Z"
              fill="#2F2E41"/>
        <path d="M169.301 49.0939C168.059 50.417 165.752 49.7068 165.59 47.8992C165.577 47.7589 165.578 47.6177 165.593 47.4775C165.676 46.6769 166.139 45.95 166.028 45.1046C166.003 44.8942 165.925 44.6937 165.8 44.5221C164.811 43.1967 162.487 45.1149 161.553 43.915C160.98 43.1793 161.654 42.0209 161.214 41.1986C160.634 40.1133 158.916 40.6487 157.838 40.0544C156.639 39.3931 156.711 37.5536 157.5 36.4347C158.463 35.0702 160.15 34.3421 161.817 34.2371C163.483 34.1322 165.138 34.5827 166.694 35.189C168.462 35.8779 170.215 36.83 171.303 38.3844C172.626 40.2747 172.753 42.816 172.091 45.0264C171.689 46.371 170.315 48.0135 169.301 49.0939Z"
              fill="#2F2E41"/>
        <path d="M102.512 102.073C101.517 102.069 100.527 101.942 99.5642 101.692L99.3745 101.64L99.1985 101.552C92.8351 98.3704 87.4667 94.1678 83.2424 89.0609C79.7455 84.8087 77.0191 79.9808 75.186 74.7942C72.9938 68.5846 71.9391 62.0325 72.0723 55.4507C72.075 55.3125 72.0773 55.2058 72.0773 55.1323C72.0773 51.9328 73.8581 49.1255 76.6141 47.9803C78.7234 47.1038 97.8751 39.2589 99.2588 38.6921C101.865 37.3899 104.645 38.4768 105.09 38.6669C106.088 39.0738 123.792 46.2954 127.618 48.1122C131.561 49.9847 132.613 53.3486 132.613 55.041C132.613 62.7031 131.283 69.864 128.658 76.3247C126.539 81.5541 123.535 86.382 119.778 90.5978C112.528 98.7339 105.276 101.618 105.206 101.644C104.34 101.941 103.428 102.086 102.512 102.073ZM100.806 97.8601C101.435 98.0006 102.882 98.2115 103.826 97.8683C105.024 97.4324 111.094 94.2936 116.765 87.9285C124.602 79.134 128.578 68.0785 128.584 55.0693C128.57 54.8057 128.382 52.9259 125.886 51.7405C122.134 49.9588 103.732 42.4547 103.546 42.3791L103.495 42.3576C103.11 42.1964 101.882 41.8569 101.036 42.2991L100.867 42.3778C100.662 42.4618 80.3322 50.7889 78.164 51.6898C76.6473 52.32 76.1069 53.8813 76.1069 55.1323C76.1069 55.2238 76.1045 55.3567 76.1012 55.5286C75.9279 64.4301 77.9934 86.3337 100.806 97.8601Z"
              fill="#3F3D56"/>
        <path d="M100.038 39.7315C100.038 39.7315 78.937 48.3978 76.6763 49.3398C74.4155 50.2818 73.2851 52.5426 73.2851 54.8034C73.2851 57.0642 71.5895 86.5643 100.038 100.827C100.038 100.827 102.62 101.542 104.578 100.827C106.537 100.113 131.406 88.0556 131.406 54.7092C131.406 54.7092 131.406 51.318 127.45 49.434C123.493 47.55 104.365 39.7315 104.365 39.7315C104.365 39.7315 102.016 38.6953 100.038 39.7315Z"
              fill="#CBCBCB"/>
        <path opacity="0.1"
              d="M102.298 46.5137V92.7454C102.298 92.7454 81.0094 82.4977 81.1978 55.5568L102.298 46.5137Z"
              fill="black"/>
        <path d="M102.576 79.7412L95.7945 71.0215L99.7383 67.9542L102.949 72.0827L113.797 60.6316L117.424 64.0684L102.576 79.7412Z"
              fill="white"/>
        <path d="M204.302 124.966C206.299 128.629 204.606 141 204.606 141C204.606 141 193.515 136.129 191.519 132.468C190.562 130.709 190.317 128.628 190.839 126.683C191.36 124.737 192.604 123.086 194.298 122.092C195.993 121.097 197.998 120.842 199.874 121.381C201.749 121.92 203.342 123.209 204.302 124.966Z"
              fill="#F1F1F1"/>
        <path d="M205.276 140.948L205.024 141C202.595 129.814 194.116 122.229 194.03 122.154L194.204 121.969C194.29 122.045 202.83 129.682 205.276 140.948Z"
              fill="white"/>
        <path d="M223.016 129.35C220.247 134.298 204.634 141 204.634 141C204.634 141 202.061 124.419 204.828 119.473C206.158 117.098 208.391 115.34 211.037 114.587C213.683 113.833 216.524 114.146 218.936 115.455C221.348 116.765 223.133 118.965 223.898 121.571C224.663 124.177 224.346 126.975 223.016 129.35Z"
              fill="#F1F1F1"/>
        <path d="M204.647 141L204.411 140.754C215.802 130.083 218.75 115.198 218.779 115.049L219.116 115.112C219.088 115.262 216.121 130.251 204.647 141Z"
              fill="white"/>
        <path d="M79.3698 141H227.378C227.481 141 227.58 140.954 227.653 140.873C227.726 140.792 227.767 140.682 227.767 140.568C227.767 140.453 227.726 140.343 227.653 140.262C227.58 140.181 227.481 140.135 227.378 140.135H79.3698C79.2668 140.135 79.168 140.181 79.0951 140.262C79.0223 140.343 78.9813 140.453 78.9813 140.568C78.9813 140.682 79.0223 140.792 79.0951 140.873C79.168 140.954 79.2668 141 79.3698 141Z"
              fill="#3F3D56"/>
    </g>
    <defs>
        <clipPath id="clip0_98_947">
            <rect width="227.709" height="141" fill="white" transform="matrix(-1 0 0 1 228 0)"/>
        </clipPath>
    </defs>
</svg>
