<svg width="40" height="40" viewBox="0 0 40 40" fill="none" xmlns="http://www.w3.org/2000/svg">
<path d="M20 38C29.9411 38 38 29.9411 38 20C38 10.0589 29.9411 2 20 2C10.0589 2 2 10.0589 2 20C2 29.9411 10.0589 38 20 38Z" fill="#F0F0F0"/>
<path d="M5.72091 9.04126C4.30699 10.8808 3.24085 13.0011 2.62006 15.3045H11.9841L5.72091 9.04126Z" fill="#0052B4"/>
<path d="M37.3799 15.3044C36.7591 13.0011 35.6929 10.8808 34.279 9.04126L28.0159 15.3044H37.3799Z" fill="#0052B4"/>
<path d="M2.62006 24.6958C3.24092 26.9991 4.30706 29.1194 5.72091 30.9589L11.9839 24.6958H2.62006Z" fill="#0052B4"/>
<path d="M30.9588 5.72104C29.1192 4.30713 26.999 3.24098 24.6956 2.62012V11.9841L30.9588 5.72104Z" fill="#0052B4"/>
<path d="M9.0412 34.2789C10.8808 35.6928 13.0011 36.7589 15.3044 37.3798V28.0159L9.0412 34.2789Z" fill="#0052B4"/>
<path d="M15.3043 2.62012C13.001 3.24098 10.8807 4.30712 9.0412 5.72097L15.3043 11.9841V2.62012Z" fill="#0052B4"/>
<path d="M24.6957 37.3798C26.999 36.7589 29.1192 35.6928 30.9588 34.279L24.6957 28.0159V37.3798Z" fill="#0052B4"/>
<path d="M28.0159 24.6958L34.279 30.959C35.6929 29.1194 36.7591 26.9991 37.3799 24.6958H28.0159Z" fill="#0052B4"/>
<g clip-path="url(#clip0_163_890)">
<path d="M20 38C29.9411 38 38 29.9411 38 20C38 10.0589 29.9411 2 20 2C10.0589 2 2 10.0589 2 20C2 29.9411 10.0589 38 20 38Z" fill="#6DA544"/>
<path d="M12.1739 23.5217C12.1739 24.8184 13.2251 25.8695 14.5217 25.8695H21.5652C21.5652 26.9501 22.4411 27.826 23.5217 27.826H25.8695C26.9501 27.826 27.826 26.9501 27.826 25.8695V23.5217H12.1739Z" fill="#F0F0F0"/>
<path d="M28.0217 12.1738V17.6521C28.0217 18.5152 27.3196 19.2173 26.4565 19.2173V21.5651C28.6142 21.5651 30.3695 19.8097 30.3695 17.6521V12.1738H28.0217Z" fill="#F0F0F0"/>
<path d="M11.1957 17.6521C11.1957 18.5152 10.4935 19.2173 9.63043 19.2173V21.5651C11.7881 21.5651 13.5435 19.8097 13.5435 17.6521V12.1738H11.1957V17.6521Z" fill="#F0F0F0"/>
<path d="M24.5 12.1738H26.8478V17.6521H24.5V12.1738Z" fill="#F0F0F0"/>
<path d="M20.9782 15.3043C20.9782 15.5201 20.8027 15.6956 20.587 15.6956C20.3712 15.6956 20.1957 15.52 20.1957 15.3043V12.1738H17.8479V15.3043C17.8479 15.5201 17.6723 15.6956 17.4566 15.6956C17.2409 15.6956 17.0653 15.52 17.0653 15.3043V12.1738H14.7174V15.3043C14.7174 16.8147 15.9462 18.0434 17.4566 18.0434C18.0383 18.0434 18.5777 17.8606 19.0218 17.5501C19.4658 17.8606 20.0053 18.0434 20.587 18.0434C20.7042 18.0434 20.8193 18.0352 20.9326 18.0208C20.7663 18.7063 20.1489 19.2173 19.4131 19.2173V21.5651C21.5708 21.5651 23.3261 19.8097 23.3261 17.6521V15.3043V12.1738H20.9783V15.3043H20.9782Z" fill="#F0F0F0"/>
<path d="M14.7174 19.2173H18.2391V21.5651H14.7174V19.2173Z" fill="#F0F0F0"/>
</g>
<rect x="2" y="2" width="36" height="36" rx="18" stroke="#F0F0F0"/>
<defs>
<clipPath id="clip0_163_890">
<rect x="2" y="2" width="36" height="36" rx="18" fill="white"/>
</clipPath>
</defs>
</svg>
