<svg width="40" height="40" viewBox="0 0 40 40" fill="none" xmlns="http://www.w3.org/2000/svg">
<path d="M20 38C29.9411 38 38 29.9411 38 20C38 10.0589 29.9411 2 20 2C10.0589 2 2 10.0589 2 20C2 29.9411 10.0589 38 20 38Z" fill="#F0F0F0"/>
<path d="M5.72091 9.04126C4.30699 10.8808 3.24085 13.0011 2.62006 15.3045H11.9841L5.72091 9.04126Z" fill="#0052B4"/>
<path d="M37.3799 15.3044C36.7591 13.0011 35.6929 10.8808 34.279 9.04126L28.0159 15.3044H37.3799Z" fill="#0052B4"/>
<path d="M2.62006 24.6958C3.24092 26.9991 4.30706 29.1194 5.72091 30.9589L11.9839 24.6958H2.62006Z" fill="#0052B4"/>
<path d="M30.9588 5.72104C29.1192 4.30713 26.999 3.24098 24.6956 2.62012V11.9841L30.9588 5.72104Z" fill="#0052B4"/>
<path d="M9.0412 34.2789C10.8808 35.6928 13.0011 36.7589 15.3044 37.3798V28.0159L9.0412 34.2789Z" fill="#0052B4"/>
<path d="M15.3043 2.62012C13.001 3.24098 10.8807 4.30712 9.0412 5.72097L15.3043 11.9841V2.62012Z" fill="#0052B4"/>
<path d="M24.6957 37.3798C26.999 36.7589 29.1192 35.6928 30.9588 34.279L24.6957 28.0159V37.3798Z" fill="#0052B4"/>
<path d="M28.0159 24.6958L34.279 30.959C35.6929 29.1194 36.7591 26.9991 37.3799 24.6958H28.0159Z" fill="#0052B4"/>
<g clip-path="url(#clip0_163_843)">
<path d="M37.5 20C37.5 29.665 29.665 37.5 20 37.5C10.335 37.5 2.5 29.665 2.5 20C2.5 10.335 10.335 2.5 20 2.5C29.665 2.5 37.5 10.335 37.5 20Z" fill="#F0F0F0" stroke="#F0F0F0"/>
<path d="M26.7776 16.0871H22.2591L20 12.1741L17.7409 16.0871H13.2224L15.4818 20.0001L13.2224 23.9132H17.7409L20 27.8262L22.2591 23.9132H26.7776L24.5182 20.0001L26.7776 16.0871ZM22.7756 20.0001L21.3879 22.404H18.6123L17.2244 20.0001L18.6122 17.5963H21.3878L22.7756 20.0001ZM20 15.1924L20.5165 16.087H19.4836L20 15.1924ZM15.8365 17.5963H16.8695L16.353 18.4909L15.8365 17.5963ZM15.8365 22.404L16.3531 21.5093L16.8696 22.404H15.8365ZM20 24.8078L19.4835 23.9132H20.5165L20 24.8078ZM24.1635 22.404H23.1304L23.647 21.5093L24.1635 22.404ZM23.1304 17.5963H24.1635L23.647 18.4909L23.1304 17.5963Z" fill="#0052B4"/>
<path d="M31.2048 5.91309H8.7952C7.15248 7.22146 5.7437 8.81066 4.64191 10.6088H35.3581C34.2562 8.81073 32.8474 7.22146 31.2048 5.91309Z" fill="#0052B4"/>
<path d="M8.7952 34.087H31.2047C32.8474 32.7787 34.2562 31.1895 35.358 29.3914H4.64191C5.74377 31.1894 7.15255 32.7787 8.7952 34.087Z" fill="#0052B4"/>
</g>
<rect x="2" y="2" width="36" height="36" rx="18" stroke="#F0F0F0"/>
<defs>
<clipPath id="clip0_163_843">
<rect x="2" y="2" width="36" height="36" rx="18" fill="white"/>
</clipPath>
</defs>
</svg>
