<svg width="40" height="40" viewBox="0 0 40 40" fill="none" xmlns="http://www.w3.org/2000/svg">
<path d="M20 38C29.9411 38 38 29.9411 38 20C38 10.0589 29.9411 2 20 2C10.0589 2 2 10.0589 2 20C2 29.9411 10.0589 38 20 38Z" fill="#F0F0F0"/>
<path d="M5.72091 9.04126C4.30699 10.8808 3.24085 13.0011 2.62006 15.3045H11.9841L5.72091 9.04126Z" fill="#0052B4"/>
<path d="M37.3799 15.3044C36.7591 13.0011 35.6929 10.8808 34.279 9.04126L28.0159 15.3044H37.3799Z" fill="#0052B4"/>
<path d="M2.62006 24.6958C3.24092 26.9991 4.30706 29.1194 5.72091 30.9589L11.9839 24.6958H2.62006Z" fill="#0052B4"/>
<path d="M30.9588 5.72104C29.1192 4.30713 26.999 3.24098 24.6956 2.62012V11.9841L30.9588 5.72104Z" fill="#0052B4"/>
<path d="M9.0412 34.2789C10.8808 35.6928 13.0011 36.7589 15.3044 37.3798V28.0159L9.0412 34.2789Z" fill="#0052B4"/>
<path d="M15.3043 2.62012C13.001 3.24098 10.8807 4.30712 9.0412 5.72097L15.3043 11.9841V2.62012Z" fill="#0052B4"/>
<path d="M24.6957 37.3798C26.999 36.7589 29.1192 35.6928 30.9588 34.279L24.6957 28.0159V37.3798Z" fill="#0052B4"/>
<path d="M28.0159 24.6958L34.279 30.959C35.6929 29.1194 36.7591 26.9991 37.3799 24.6958H28.0159Z" fill="#0052B4"/>
<g clip-path="url(#clip0_163_867)">
<path d="M20 37.8906C29.9411 37.8906 38 29.8318 38 19.8906C38 9.9495 29.9411 1.89062 20 1.89062C10.0589 1.89062 2 9.9495 2 19.8906C2 29.8318 10.0589 37.8906 20 37.8906Z" fill="#F0F0F0"/>
<path d="M36.8804 26.1516C37.604 24.2016 38 22.0925 38 19.8907C38 17.689 37.604 15.5799 36.8804 13.6299H3.11959C2.39607 15.5799 2 17.689 2 19.8907C2 22.0925 2.39607 24.2016 3.11959 26.1516L20 27.7168L36.8804 26.1516Z" fill="#0052B4"/>
<path d="M20 37.8905C27.7393 37.8905 34.3371 33.0058 36.8804 26.1514H3.11957C5.66284 33.0058 12.2606 37.8905 20 37.8905Z" fill="#D80027"/>
</g>
<rect x="2" y="1.89062" width="36" height="36" rx="18" stroke="#F0F0F0"/>
<defs>
<clipPath id="clip0_163_867">
<rect x="2" y="1.89062" width="36" height="36" rx="18" fill="white"/>
</clipPath>
</defs>
</svg>
