<svg width="40" height="40" viewBox="0 0 40 40" fill="none" xmlns="http://www.w3.org/2000/svg">
<path d="M20 38C29.9411 38 38 29.9411 38 20C38 10.0589 29.9411 2 20 2C10.0589 2 2 10.0589 2 20C2 29.9411 10.0589 38 20 38Z" fill="#F0F0F0"/>
<path d="M5.72091 9.04126C4.30699 10.8808 3.24085 13.0011 2.62006 15.3045H11.9841L5.72091 9.04126Z" fill="#0052B4"/>
<path d="M37.3799 15.3044C36.7591 13.0011 35.6929 10.8808 34.279 9.04126L28.0159 15.3044H37.3799Z" fill="#0052B4"/>
<path d="M2.62006 24.6958C3.24092 26.9991 4.30706 29.1194 5.72091 30.9589L11.9839 24.6958H2.62006Z" fill="#0052B4"/>
<path d="M30.9588 5.72104C29.1192 4.30713 26.999 3.24098 24.6956 2.62012V11.9841L30.9588 5.72104Z" fill="#0052B4"/>
<path d="M9.0412 34.2789C10.8808 35.6928 13.0011 36.7589 15.3044 37.3798V28.0159L9.0412 34.2789Z" fill="#0052B4"/>
<path d="M15.3043 2.62012C13.001 3.24098 10.8807 4.30712 9.0412 5.72097L15.3043 11.9841V2.62012Z" fill="#0052B4"/>
<path d="M24.6957 37.3798C26.999 36.7589 29.1192 35.6928 30.9588 34.279L24.6957 28.0159V37.3798Z" fill="#0052B4"/>
<path d="M28.0159 24.6958L34.279 30.959C35.6929 29.1194 36.7591 26.9991 37.3799 24.6958H28.0159Z" fill="#0052B4"/>
<g clip-path="url(#clip0_163_708)">
<path d="M37.8476 17.6522H22.3479H22.3479V2.15237C21.5793 2.05231 20.7957 2 20 2C19.2041 2 18.4207 2.05231 17.6522 2.15237V17.6521V17.6521H2.15237C2.05231 18.4207 2 19.2043 2 20C2 20.7959 2.05231 21.5793 2.15237 22.3478H17.6521H17.6521V37.8476C18.4207 37.9477 19.2041 38 20 38C20.7957 38 21.5793 37.9478 22.3478 37.8476V22.3479V22.3479H37.8476C37.9477 21.5793 38 20.7959 38 20C38 19.2043 37.9477 18.4207 37.8476 17.6522Z" fill="#D80027"/>
<path d="M24.6957 24.6959L32.7279 32.7281C33.0973 32.3588 33.4497 31.9727 33.786 31.5725L26.9093 24.6958H24.6957V24.6959Z" fill="#D80027"/>
<path d="M15.3043 24.6958H15.3042L7.27203 32.728C7.64131 33.0974 8.0274 33.4498 8.42762 33.786L15.3043 26.9092V24.6958Z" fill="#D80027"/>
<path d="M15.3043 15.3044V15.3043L7.27211 7.27197C6.90269 7.64125 6.55028 8.02734 6.21405 8.42756L13.0908 15.3043H15.3043V15.3044Z" fill="#D80027"/>
<path d="M24.6957 15.3045L32.728 7.2721C32.3587 6.90268 31.9726 6.55028 31.5724 6.21411L24.6957 13.0909V15.3045Z" fill="#D80027"/>
</g>
<rect x="2" y="2" width="36" height="36" rx="18" stroke="#F0F0F0"/>
<defs>
<clipPath id="clip0_163_708">
<rect x="2" y="2" width="36" height="36" rx="18" fill="white"/>
</clipPath>
</defs>
</svg>
